<svg xmlns="http://www.w3.org/2000/svg" version="1.1" xmlns:xlink="http://www.w3.org/1999/xlink" xmlns:svgjs="http://svgjs.com/svgjs" width="1440" height="1024" preserveAspectRatio="none" viewBox="0 0 1440 1024"><g mask="url(&quot;#SvgjsMask2171&quot;)" fill="none"><rect width="1440" height="1024" x="0" y="0" fill="url(#SvgjsLinearGradient2172)"></rect><rect width="354.64" height="354.64" clip-path="url(&quot;#SvgjsClipPath2173&quot;)" x="932.14" y="840.45" fill="url(#SvgjsPattern2174)" transform="rotate(163.19, 1109.46, 1017.77)"></rect><path d="M1363.59 990.47a5.6 5.6 0 1 0 9.26-6.29 5.6 5.6 0 1 0-9.26 6.29zM1376.82 981.48a5.6 5.6 0 1 0 9.26-6.3 5.6 5.6 0 1 0-9.26 6.3zM1390.05 972.49a5.6 5.6 0 1 0 9.27-6.3 5.6 5.6 0 1 0-9.27 6.3zM1403.29 963.49a5.6 5.6 0 1 0 9.26-6.29 5.6 5.6 0 1 0-9.26 6.29zM1346.11 1021.69a5.6 5.6 0 1 0 9.27-6.29 5.6 5.6 0 1 0-9.27 6.29zM1359.35 1012.7a5.6 5.6 0 1 0 9.26-6.3 5.6 5.6 0 1 0-9.26 6.3zM1372.58 1003.71a5.6 5.6 0 1 0 9.26-6.3 5.6 5.6 0 1 0-9.26 6.3zM1385.81 994.71a5.6 5.6 0 1 0 9.27-6.29 5.6 5.6 0 1 0-9.27 6.29z" stroke="rgba(255, 136, 112, 1)" stroke-width="2.49" stroke-dasharray="4, 4"></path><rect width="538.88" height="538.88" clip-path="url(&quot;#SvgjsClipPath2175&quot;)" x="993.49" y="670.69" fill="url(#SvgjsPattern2176)" transform="rotate(125.06, 1262.93, 940.13)"></rect><rect width="72" height="72" clip-path="url(&quot;#SvgjsClipPath2177&quot;)" x="477.64" y="827.24" fill="url(#SvgjsPattern2178)" transform="rotate(163.19, 513.64, 863.24)"></rect><circle r="85.33333333333333" cx="76.31" cy="58.68" stroke="rgba(255, 136, 112, 1)" stroke-width="1" stroke-dasharray="4, 4"></circle><rect width="132" height="132" clip-path="url(&quot;#SvgjsClipPath2179&quot;)" x="997.77" y="251.78" fill="url(#SvgjsPattern2180)" transform="rotate(23.39, 1063.77, 317.78)"></rect><rect width="204" height="204" clip-path="url(&quot;#SvgjsClipPath2181&quot;)" x="524.55" y="805.04" fill="url(#SvgjsPattern2182)" transform="rotate(139.69, 626.55, 907.04)"></rect></g><defs><mask id="SvgjsMask2171"><rect width="1440" height="1024" fill="#ffffff"></rect></mask><linearGradient x1="7.22%" y1="-10.16%" x2="92.78%" y2="110.16%" gradientUnits="userSpaceOnUse" id="SvgjsLinearGradient2172"><stop stop-color="rgba(14, 42, 71, 1)" offset="0.42"></stop><stop stop-color="rgba(67, 70, 139, 1)" offset="1"></stop></linearGradient><pattern x="0" y="0" width="354.64" height="13.64" patternUnits="userSpaceOnUse" id="SvgjsPattern2174"><rect width="354.64" height="6.82" x="0" y="0" fill="rgba(155, 79, 148, 1)"></rect><rect width="354.64" height="6.82" x="0" y="6.82" fill="rgba(0, 0, 0, 0)"></rect></pattern><clipPath id="SvgjsClipPath2173"><circle r="88.66" cx="1109.46" cy="1017.77"></circle></clipPath><pattern x="0" y="0" width="8.42" height="8.42" patternUnits="userSpaceOnUse" id="SvgjsPattern2176"><path d="M4.21 1L4.21 7.42M1 4.21L7.42 4.21" stroke="rgba(222, 97, 135, 1)" fill="none" stroke-width="1.14"></path></pattern><clipPath id="SvgjsClipPath2175"><circle r="134.72" cx="1262.93" cy="940.13"></circle></clipPath><pattern x="0" y="0" width="72" height="6" patternUnits="userSpaceOnUse" id="SvgjsPattern2178"><rect width="72" height="3" x="0" y="0" fill="rgba(222, 97, 135, 1)"></rect><rect width="72" height="3" x="0" y="3" fill="rgba(0, 0, 0, 0)"></rect></pattern><clipPath id="SvgjsClipPath2177"><circle r="18" cx="513.64" cy="863.24"></circle></clipPath><pattern x="0" y="0" width="132" height="6" patternUnits="userSpaceOnUse" id="SvgjsPattern2180"><rect width="132" height="3" x="0" y="0" fill="rgba(255, 136, 112, 1)"></rect><rect width="132" height="3" x="0" y="3" fill="rgba(0, 0, 0, 0)"></rect></pattern><clipPath id="SvgjsClipPath2179"><circle r="33" cx="1063.77" cy="317.78"></circle></clipPath><pattern x="0" y="0" width="6" height="6" patternUnits="userSpaceOnUse" id="SvgjsPattern2182"><path d="M3 1L3 5M1 3L5 3" stroke="rgba(255, 136, 112, 1)" fill="none" stroke-width="1"></path></pattern><clipPath id="SvgjsClipPath2181"><circle r="51" cx="626.55" cy="907.04"></circle></clipPath></defs></svg>